<svg width="364" height="94" viewBox="0 0 364 94" fill="none" xmlns="http://www.w3.org/2000/svg">
<rect width="364" height="94" rx="8" fill="#C72828"/>
<path fill-rule="evenodd" clip-rule="evenodd" d="M64 32.3863C60.0372 32.3863 56.2897 31.7619 53.4481 30.6282C50.1848 29.3263 48.3875 27.4282 48.3876 25.2834C48.3876 23.1387 50.1849 21.2407 53.4482 19.9388C55.4813 19.1277 57.9794 18.5791 60.6871 18.3315C60.252 17.7631 60.2921 16.9452 60.8103 16.4245C61.3735 15.8585 62.2867 15.8585 62.85 16.4245L65.0197 18.6054C65.583 19.1715 65.583 20.0894 65.0197 20.6555L62.8499 22.8362C62.5683 23.1193 62.1991 23.2608 61.83 23.2608C61.4609 23.2608 61.0918 23.1193 60.8101 22.8362C60.3867 22.4105 60.2818 21.7858 60.4953 21.2615C58.2425 21.4993 56.1862 21.9656 54.5124 22.6334C52.1207 23.5875 51.2722 24.6573 51.2722 25.2834C51.2722 25.9095 52.1207 26.9793 54.5124 27.9334C57.0234 28.9352 60.3929 29.4869 64 29.4869C67.6071 29.4869 70.9766 28.9352 73.4877 27.9334C75.8793 26.9793 76.7279 25.9096 76.7279 25.2834C76.7279 24.2672 74.7568 22.7627 70.9897 21.8531C70.2152 21.6661 69.7382 20.8835 69.9242 20.1051C70.1102 19.3266 70.8892 18.8471 71.6635 19.0342C76.7153 20.2539 79.6125 22.5318 79.6125 25.2836C79.6125 27.4282 77.8152 29.3263 74.552 30.6282C71.7103 31.7619 67.9628 32.3863 64 32.3863ZM86.0449 38.9316C94.2728 41.5632 96 44.8933 96 47.2235C96 47.2615 95.9994 47.2998 95.9986 47.3382C95.9677 55.5286 92.6348 63.2209 86.6036 69.0091C80.5626 74.807 72.535 78 64 78C55.465 78 47.4376 74.807 41.3964 69.0091C35.3653 63.2209 32.0323 55.5286 32.0014 47.3382C32.0006 47.2998 32 47.2615 32 47.2235C32 44.8933 33.7272 41.5632 41.9553 38.9314C47.8645 37.0416 55.6935 36.0008 64.0001 36.0008C69.5784 36.0008 74.9402 36.4709 79.651 37.3515L83.2414 31.8698C83.6795 31.2011 84.5738 31.0158 85.2392 31.456C85.9045 31.8963 86.0889 32.7952 85.6508 33.4639L82.6818 37.9969C83.8589 38.2804 84.9833 38.5921 86.0449 38.9316ZM93.1153 47.2235C93.1153 45.3804 90.071 43.2618 85.1701 41.6943C83.8716 41.279 82.4716 40.9072 80.9899 40.5802L75.0643 49.6274C79.4948 50.1688 83.5381 51.0324 86.8448 52.1683C90.7542 50.6827 93.1153 48.8463 93.1153 47.2235ZM46.3212 53.7103C51.4077 54.9025 57.5414 55.5469 64 55.5469C65.2755 55.5469 66.5381 55.5215 67.7825 55.472L70.0137 52.0656C68.0509 51.9376 66.0371 51.871 63.9996 51.871C57.5818 51.871 51.3965 52.5261 46.3212 53.7103ZM81.6789 53.7103C79.1254 53.1145 76.2905 52.6531 73.2866 52.3413L71.3765 55.2577C75.0908 54.96 78.5792 54.4368 81.6789 53.7103ZM63.9999 38.9001C55.9821 38.9001 48.4638 39.8925 42.8297 41.6943C37.929 43.2616 34.8847 45.3804 34.8847 47.2235C34.8847 48.8465 37.2459 50.6828 41.1553 52.1683C47.077 50.134 55.3596 48.9717 63.9994 48.9717C66.6627 48.9717 69.2912 49.083 71.828 49.2953L77.9243 39.9876C73.688 39.2772 68.9391 38.9001 63.9999 38.9001ZM35.4105 52.5064C37.9962 65.3603 49.8318 75.1008 64 75.1008C78.1682 75.1008 90.0038 65.3605 92.5895 52.5064C91.0919 53.547 88.9831 54.5758 86.0449 55.5154C80.1358 57.4053 72.3067 58.4461 64 58.4461C55.6933 58.4461 47.8643 57.4053 41.9551 55.5154C39.0169 54.5757 36.9081 53.5469 35.4105 52.5064Z" fill="#FFB84D"/>
<path d="M124.088 45.9323C130.887 45.9323 135.592 42.0733 135.592 33.4415H123.676V37.2666H130.372C130.338 37.4697 130.304 37.6728 130.235 37.842C129.617 40.2793 127.179 41.7348 124.088 41.7348C119.967 41.7348 116.773 38.1467 116.773 33.9831C116.773 29.8195 119.967 26.3667 124.088 26.3667C126.148 26.3667 128.037 27.2468 129.376 28.6685L132.845 25.7235C130.784 23.4556 127.659 22 124.088 22C117.288 22 112 27.3484 112 33.9831C112 40.5839 117.288 45.9323 124.088 45.9323Z" fill="white"/>
<path d="M146.371 45.9322C150.938 45.9322 154.99 42.6826 154.99 37.7065C154.99 32.6967 150.938 29.447 146.371 29.447C141.804 29.447 137.751 32.6967 137.751 37.7065C137.751 42.6826 141.804 45.9322 146.371 45.9322ZM146.371 41.8024C144.139 41.8024 142.319 40.1438 142.319 37.7065C142.319 35.2354 144.139 33.5768 146.371 33.5768C148.603 33.5768 150.423 35.2354 150.423 37.7065C150.423 40.1438 148.603 41.8024 146.371 41.8024Z" fill="white"/>
<path d="M171.171 45.6276H176.768L170.621 37.0296C174.605 36.2172 176.356 33.2384 176.356 29.921C176.356 26.0959 174.021 22.3047 168.595 22.3047H159.151V45.6276H163.925V37.2666H165.539L171.171 45.6276ZM163.925 26.4683H168.114C170.346 26.4683 171.548 28.1608 171.548 30.0226C171.548 31.8843 170.415 33.4753 167.737 33.4753H163.925V26.4683Z" fill="white"/>
<path d="M195.426 37.4696C195.426 32.629 191.682 29.447 187.115 29.447C182.513 29.447 178.599 32.629 178.599 37.7404C178.599 42.6149 182.204 45.9322 187.115 45.9322C189.931 45.9322 192.747 44.849 194.258 42.8518L191.614 40.2453C190.652 41.3624 189.038 42.0055 187.424 42.0055C185.261 42.0055 183.75 40.99 183.269 39.1621H195.357C195.391 38.4512 195.426 37.9096 195.426 37.4696ZM183.269 36.2848C183.75 34.1522 185.364 33.306 187.184 33.306C189.21 33.306 190.79 34.423 190.927 36.2848H183.269Z" fill="white"/>
<path d="M204.576 45.9322C207.873 45.9322 211.307 44.3074 211.307 40.99C211.307 39.7037 210.826 37.3342 206.98 36.3187L204.336 35.6416C203.443 35.4047 202.756 35.0323 202.756 34.2876C202.756 33.4752 203.581 32.9675 204.611 32.9675C205.675 32.9675 206.568 33.5429 206.568 34.5923H210.861C210.895 30.8687 207.461 29.447 204.542 29.447C200.833 29.447 198.258 31.715 198.258 34.1522C198.258 35.8109 198.807 38.0789 202.928 39.1621L205.057 39.6699C206.259 39.9745 206.809 40.313 206.809 40.99C206.809 41.904 205.813 42.4456 204.508 42.4456C202.928 42.4456 202.138 41.4639 202.138 40.55H197.914C197.949 44.0366 201.211 45.9322 204.576 45.9322Z" fill="white"/>
<path d="M224.216 29.8534H220.817V24.0649H216.318V29.8534H213.399V33.2723H216.318V45.6277H220.817V33.2723H224.216V29.8534Z" fill="white"/>
<path d="M238.899 29.8533V31.7489C237.766 30.158 235.602 29.481 233.748 29.481C229.627 29.481 225.884 32.6291 225.884 37.7066C225.884 42.7842 229.627 45.9323 233.748 45.9323C235.534 45.9323 237.766 45.2214 238.899 43.6643V45.6276H243.398V29.8533H238.899ZM234.606 41.8025C232.34 41.8025 230.451 40.0085 230.451 37.7066C230.451 35.3709 232.34 33.6446 234.606 33.6446C236.701 33.6446 238.762 35.2694 238.762 37.7066C238.762 40.11 236.804 41.8025 234.606 41.8025Z" fill="white"/>
<path d="M258.894 29.8533V37.9436C258.894 40.787 256.902 41.6333 255.288 41.6333C253.743 41.6333 252.232 40.5162 252.232 38.0451V29.8533H247.733V38.519C247.699 43.2581 249.897 46 254.086 46C255.666 46 258.207 45.1199 258.894 43.055V45.6276H263.393V29.8533H258.894Z" fill="white"/>
<path d="M277.096 29.447C275.104 29.447 273.284 30.5641 272.391 33.2044V29.8532H267.927V45.6275H272.425V40.2115C272.425 35.7093 274.005 33.6106 276.306 33.6106C276.855 33.6106 277.645 33.6783 278.607 34.1861L279.637 29.9548C278.916 29.5824 277.954 29.447 277.096 29.447Z" fill="white"/>
<path d="M293.73 29.8533V31.7489C292.597 30.158 290.433 29.481 288.579 29.481C284.458 29.481 280.715 32.6291 280.715 37.7066C280.715 42.7842 284.458 45.9323 288.579 45.9323C290.365 45.9323 292.597 45.2214 293.73 43.6643V45.6276H298.228V29.8533H293.73ZM289.437 41.8025C287.171 41.8025 285.282 40.0085 285.282 37.7066C285.282 35.3709 287.171 33.6446 289.437 33.6446C291.532 33.6446 293.593 35.2694 293.593 37.7066C293.593 40.11 291.635 41.8025 289.437 41.8025Z" fill="white"/>
<path d="M312.077 29.447C310.497 29.447 307.956 30.361 307.269 32.4936V29.8532H302.77V45.6275H307.269V37.5373C307.269 34.66 309.261 33.8137 310.875 33.8137C312.42 33.8137 313.931 34.9308 313.931 37.4357V45.6275H318.43V36.9618C318.464 32.2227 316.266 29.447 312.077 29.447Z" fill="white"/>
<path d="M332 29.8534H328.6V24.0649H324.102V29.8534H321.183V33.2723H324.102V45.6277H328.6V33.2723H332V29.8534Z" fill="white"/>
<path d="M120.653 66.2344C120.514 67.4151 120.074 68.3275 119.333 68.9715C118.597 69.6104 117.617 69.9299 116.392 69.9299C115.064 69.9299 113.999 69.4571 113.196 68.5115C112.399 67.5659 112 66.3008 112 64.7163V63.6429C112 62.6053 112.185 61.693 112.556 60.9058C112.931 60.1187 113.461 59.5155 114.146 59.0964C114.83 58.6721 115.623 58.46 116.523 58.46C117.717 58.46 118.674 58.7923 119.395 59.4567C120.115 60.1161 120.535 61.031 120.653 62.2015H119.163C119.035 61.3122 118.754 60.6681 118.322 60.2694C117.895 59.8708 117.295 59.6714 116.523 59.6714C115.576 59.6714 114.833 60.019 114.293 60.7141C113.757 61.4093 113.49 62.3983 113.49 63.6813V64.7623C113.49 65.9737 113.744 66.9372 114.254 67.6528C114.763 68.3684 115.476 68.7262 116.392 68.7262C117.215 68.7262 117.846 68.5422 118.283 68.1742C118.726 67.801 119.019 67.1544 119.163 66.2344H120.653Z" fill="#FFB1B1"/>
<path d="M122.081 65.5519C122.081 64.7392 122.241 64.0083 122.56 63.3592C122.884 62.71 123.332 62.2091 123.903 61.8564C124.479 61.5037 125.135 61.3274 125.871 61.3274C127.008 61.3274 127.927 61.7184 128.627 62.5004C129.332 63.2825 129.684 64.3226 129.684 65.6209V65.7206C129.684 66.5282 129.527 67.254 129.213 67.898C128.904 68.537 128.459 69.0353 127.878 69.3931C127.301 69.7509 126.638 69.9298 125.886 69.9298C124.754 69.9298 123.836 69.5388 123.131 68.7567C122.431 67.9747 122.081 66.9397 122.081 65.6516V65.5519ZM123.517 65.7206C123.517 66.6406 123.73 67.3792 124.157 67.9364C124.59 68.4935 125.166 68.7721 125.886 68.7721C126.612 68.7721 127.188 68.491 127.615 67.9287C128.042 67.3613 128.256 66.5691 128.256 65.5519C128.256 64.6421 128.037 63.9061 127.6 63.3438C127.168 62.7765 126.591 62.4928 125.871 62.4928C125.166 62.4928 124.597 62.7713 124.165 63.3285C123.733 63.8856 123.517 64.683 123.517 65.7206Z" fill="#FFB1B1"/>
<path d="M132.818 61.4807L132.857 62.4008C133.469 61.6852 134.295 61.3274 135.334 61.3274C136.502 61.3274 137.297 61.7721 137.719 62.6615C137.997 62.2628 138.358 61.9408 138.8 61.6954C139.248 61.4501 139.775 61.3274 140.382 61.3274C142.214 61.3274 143.146 62.2909 143.177 64.2179V69.7765H141.749V64.3022C141.749 63.7093 141.612 63.2672 141.34 62.9758C141.067 62.6793 140.609 62.5311 139.966 62.5311C139.436 62.5311 138.996 62.6896 138.646 63.0065C138.296 63.3183 138.093 63.74 138.036 64.2715V69.7765H136.6V64.3405C136.6 63.1343 136.006 62.5311 134.817 62.5311C133.881 62.5311 133.24 62.9272 132.895 63.7195V69.7765H131.467V61.4807H132.818Z" fill="#FFB1B1"/>
<path d="M146.89 69.7766H145.462V61.4808H146.89V69.7766ZM145.346 59.2804C145.346 59.0504 145.415 58.8562 145.554 58.6977C145.698 58.5392 145.909 58.46 146.187 58.46C146.465 58.46 146.676 58.5392 146.82 58.6977C146.964 58.8562 147.036 59.0504 147.036 59.2804C147.036 59.5104 146.964 59.7021 146.82 59.8554C146.676 60.0088 146.465 60.0854 146.187 60.0854C145.909 60.0854 145.698 60.0088 145.554 59.8554C145.415 59.7021 145.346 59.5104 145.346 59.2804Z" fill="#FFB1B1"/>
<path d="M148.835 65.5597C148.835 64.287 149.138 63.2647 149.746 62.4929C150.353 61.716 151.148 61.3275 152.131 61.3275C153.108 61.3275 153.883 61.6597 154.454 62.3242V58H155.882V69.7766H154.57L154.5 68.8872C153.929 69.5823 153.134 69.9299 152.115 69.9299C151.148 69.9299 150.358 69.5363 149.746 68.7492C149.138 67.962 148.835 66.9346 148.835 65.667V65.5597ZM150.263 65.7207C150.263 66.6612 150.458 67.3972 150.849 67.9288C151.24 68.4604 151.781 68.7262 152.47 68.7262C153.376 68.7262 154.037 68.3224 154.454 67.5148V63.7043C154.027 62.9222 153.371 62.5312 152.486 62.5312C151.786 62.5312 151.24 62.7996 150.849 63.3363C150.458 63.8729 150.263 64.6678 150.263 65.7207Z" fill="#FFB1B1"/>
<path d="M163.261 69.7765C163.179 69.6129 163.112 69.3215 163.061 68.9024C162.397 69.5873 161.604 69.9298 160.683 69.9298C159.86 69.9298 159.183 69.6998 158.653 69.2398C158.128 68.7746 157.866 68.1868 157.866 67.4764C157.866 66.6125 158.195 65.9429 158.854 65.4676C159.518 64.9871 160.449 64.7469 161.648 64.7469H163.038V64.0952C163.038 63.5994 162.888 63.2058 162.59 62.9145C162.291 62.618 161.851 62.4698 161.27 62.4698C160.76 62.4698 160.333 62.5976 159.989 62.8531C159.644 63.1087 159.471 63.4179 159.471 63.7808H158.036C158.036 63.3668 158.182 62.9681 158.476 62.5848C158.774 62.1963 159.175 61.8896 159.68 61.6647C160.189 61.4398 160.748 61.3274 161.355 61.3274C162.317 61.3274 163.071 61.5676 163.616 62.0481C164.162 62.5234 164.445 63.1803 164.466 64.0185V67.8367C164.466 68.5983 164.563 69.204 164.759 69.6538V69.7765H163.261ZM160.892 68.6954C161.339 68.6954 161.764 68.5804 162.165 68.3504C162.567 68.1204 162.857 67.8214 163.038 67.4534V65.7513H161.918C160.169 65.7513 159.294 66.2598 159.294 67.277C159.294 67.7217 159.443 68.0693 159.742 68.3197C160.04 68.5702 160.423 68.6954 160.892 68.6954Z" fill="#FFB1B1"/>
<path d="M172.439 69.7765H170.957V58.6133H172.439V69.7765Z" fill="#FFB1B1"/>
<path d="M176.87 59.4722V61.4809H178.429V62.5773H176.87V67.7219C176.87 68.0541 176.939 68.3046 177.078 68.4733C177.217 68.6368 177.454 68.7186 177.788 68.7186C177.953 68.7186 178.179 68.6879 178.468 68.6266V69.7767C178.092 69.8789 177.727 69.93 177.372 69.93C176.733 69.93 176.252 69.7383 175.928 69.355C175.604 68.9716 175.442 68.4273 175.442 67.7219V62.5773H173.921V61.4809H175.442V59.4722H176.87Z" fill="#FFB1B1"/>
<path d="M185.26 69.7765C185.178 69.6129 185.111 69.3215 185.06 68.9024C184.396 69.5873 183.603 69.9298 182.682 69.9298C181.859 69.9298 181.182 69.6998 180.652 69.2398C180.127 68.7746 179.865 68.1868 179.865 67.4764C179.865 66.6125 180.194 65.9429 180.853 65.4676C181.517 64.9871 182.448 64.7469 183.647 64.7469H185.036V64.0952C185.036 63.5994 184.887 63.2058 184.589 62.9145C184.29 62.618 183.85 62.4698 183.269 62.4698C182.759 62.4698 182.332 62.5976 181.987 62.8531C181.643 63.1087 181.47 63.4179 181.47 63.7808H180.035C180.035 63.3668 180.181 62.9681 180.475 62.5848C180.773 62.1963 181.174 61.8896 181.679 61.6647C182.188 61.4398 182.747 61.3274 183.354 61.3274C184.316 61.3274 185.07 61.5676 185.615 62.0481C186.161 62.5234 186.444 63.1803 186.464 64.0185V67.8367C186.464 68.5983 186.562 69.204 186.758 69.6538V69.7765H185.26ZM182.891 68.6954C183.338 68.6954 183.763 68.5804 184.164 68.3504C184.566 68.1204 184.856 67.8214 185.036 67.4534V65.7513H183.917C182.168 65.7513 181.293 66.2598 181.293 67.277C181.293 67.7217 181.442 68.0693 181.74 68.3197C182.039 68.5702 182.422 68.6954 182.891 68.6954Z" fill="#FFB1B1"/>
<path d="M190.254 69.7766H188.826V58H190.254V69.7766Z" fill="#FFB1B1"/>
<path d="M194.098 69.7766H192.67V61.4808H194.098V69.7766ZM192.555 59.2804C192.555 59.0504 192.624 58.8562 192.763 58.6977C192.907 58.5392 193.118 58.46 193.396 58.46C193.674 58.46 193.885 58.5392 194.029 58.6977C194.173 58.8562 194.245 59.0504 194.245 59.2804C194.245 59.5104 194.173 59.7021 194.029 59.8554C193.885 60.0088 193.674 60.0854 193.396 60.0854C193.118 60.0854 192.907 60.0088 192.763 59.8554C192.624 59.7021 192.555 59.5104 192.555 59.2804Z" fill="#FFB1B1"/>
<path d="M201.547 69.7765C201.465 69.6129 201.398 69.3215 201.347 68.9024C200.683 69.5873 199.89 69.9298 198.969 69.9298C198.146 69.9298 197.469 69.6998 196.939 69.2398C196.414 68.7746 196.152 68.1868 196.152 67.4764C196.152 66.6125 196.481 65.9429 197.14 65.4676C197.804 64.9871 198.735 64.7469 199.934 64.7469H201.323V64.0952C201.323 63.5994 201.174 63.2058 200.876 62.9145C200.577 62.618 200.137 62.4698 199.556 62.4698C199.046 62.4698 198.619 62.5976 198.274 62.8531C197.93 63.1087 197.757 63.4179 197.757 63.7808H196.322C196.322 63.3668 196.468 62.9681 196.762 62.5848C197.06 62.1963 197.461 61.8896 197.966 61.6647C198.475 61.4398 199.033 61.3274 199.641 61.3274C200.603 61.3274 201.357 61.5676 201.902 62.0481C202.448 62.5234 202.731 63.1803 202.751 64.0185V67.8367C202.751 68.5983 202.849 69.204 203.045 69.6538V69.7765H201.547ZM199.178 68.6954C199.625 68.6954 200.05 68.5804 200.451 68.3504C200.853 68.1204 201.143 67.8214 201.323 67.4534V65.7513H200.204C198.455 65.7513 197.58 66.2598 197.58 67.277C197.58 67.7217 197.729 68.0693 198.027 68.3197C198.326 68.5702 198.709 68.6954 199.178 68.6954Z" fill="#FFB1B1"/>
<path d="M206.341 61.4807L206.387 62.5234C207.025 61.7261 207.859 61.3274 208.888 61.3274C210.653 61.3274 211.543 62.3164 211.559 64.2945V69.7765H210.131V64.2869C210.126 63.6888 209.987 63.2467 209.714 62.9605C209.446 62.6742 209.027 62.5311 208.456 62.5311C207.993 62.5311 207.586 62.6538 207.236 62.8991C206.886 63.1445 206.613 63.4665 206.418 63.8652V69.7765H204.99V61.4807H206.341Z" fill="#FFB1B1"/>
<path d="M218.869 69.7765C218.786 69.6129 218.719 69.3215 218.668 68.9024C218.004 69.5873 217.212 69.9298 216.29 69.9298C215.467 69.9298 214.79 69.6998 214.26 69.2398C213.735 68.7746 213.473 68.1868 213.473 67.4764C213.473 66.6125 213.802 65.9429 214.461 65.4676C215.125 64.9871 216.056 64.7469 217.255 64.7469H218.645V64.0952C218.645 63.5994 218.495 63.2058 218.197 62.9145C217.899 62.618 217.459 62.4698 216.877 62.4698C216.368 62.4698 215.94 62.5976 215.596 62.8531C215.251 63.1087 215.079 63.4179 215.079 63.7808H213.643C213.643 63.3668 213.789 62.9681 214.083 62.5848C214.381 62.1963 214.783 61.8896 215.287 61.6647C215.796 61.4398 216.355 61.3274 216.962 61.3274C217.924 61.3274 218.678 61.5676 219.224 62.0481C219.769 62.5234 220.052 63.1803 220.073 64.0185V67.8367C220.073 68.5983 220.17 69.204 220.366 69.6538V69.7765H218.869ZM216.499 68.6954C216.947 68.6954 217.371 68.5804 217.772 68.3504C218.174 68.1204 218.465 67.8214 218.645 67.4534V65.7513H217.525C215.776 65.7513 214.901 66.2598 214.901 67.277C214.901 67.7217 215.05 68.0693 215.349 68.3197C215.647 68.5702 216.031 68.6954 216.499 68.6954Z" fill="#FFB1B1"/>
<path d="M222.265 71.9999L221.454 71.4479C221.938 70.7783 222.19 70.0883 222.211 69.3778V68.0974H223.608V69.2091C223.608 69.7253 223.479 70.2416 223.222 70.7578C222.97 71.2741 222.651 71.6881 222.265 71.9999Z" fill="#FFB1B1"/>
<path d="M234.198 67.576C234.198 67.1927 234.052 66.8962 233.758 66.6866C233.47 66.472 232.963 66.288 232.238 66.1346C231.517 65.9813 230.943 65.7973 230.516 65.5826C230.094 65.3679 229.781 65.1123 229.575 64.8159C229.374 64.5194 229.274 64.1667 229.274 63.7578C229.274 63.078 229.562 62.503 230.138 62.0328C230.72 61.5625 231.461 61.3274 232.361 61.3274C233.308 61.3274 234.075 61.5702 234.661 62.0558C235.253 62.5413 235.549 63.1624 235.549 63.9188H234.113C234.113 63.5304 233.946 63.1956 233.612 62.9145C233.282 62.6333 232.866 62.4928 232.361 62.4928C231.841 62.4928 231.435 62.6052 231.142 62.8301C230.848 63.055 230.702 63.3489 230.702 63.7118C230.702 64.0543 230.838 64.3124 231.111 64.4862C231.383 64.66 231.875 64.8261 232.585 64.9846C233.3 65.143 233.879 65.3321 234.322 65.5519C234.764 65.7717 235.091 66.0375 235.302 66.3493C235.518 66.656 235.626 67.0317 235.626 67.4764C235.626 68.2175 235.328 68.813 234.731 69.2628C234.134 69.7075 233.36 69.9298 232.408 69.9298C231.739 69.9298 231.147 69.8122 230.632 69.5771C230.118 69.342 229.714 69.0149 229.42 68.5957C229.132 68.1715 228.988 67.714 228.988 67.2233H230.416C230.442 67.6987 230.632 68.0769 230.987 68.3581C231.347 68.6341 231.821 68.7721 232.408 68.7721C232.948 68.7721 233.38 68.6647 233.704 68.4501C234.034 68.2303 234.198 67.9389 234.198 67.576Z" fill="#FFB1B1"/>
<path d="M239.038 69.7766H237.61V61.4808H239.038V69.7766ZM237.494 59.2804C237.494 59.0504 237.564 58.8562 237.703 58.6977C237.847 58.5392 238.058 58.46 238.336 58.46C238.614 58.46 238.825 58.5392 238.969 58.6977C239.113 58.8562 239.185 59.0504 239.185 59.2804C239.185 59.5104 239.113 59.7021 238.969 59.8554C238.825 60.0088 238.614 60.0854 238.336 60.0854C238.058 60.0854 237.847 60.0088 237.703 59.8554C237.564 59.7021 237.494 59.5104 237.494 59.2804Z" fill="#FFB1B1"/>
<path d="M242.674 61.4807L242.712 62.4008C243.325 61.6852 244.151 61.3274 245.19 61.3274C246.358 61.3274 247.153 61.7721 247.575 62.6615C247.853 62.2628 248.213 61.9408 248.656 61.6954C249.104 61.4501 249.631 61.3274 250.238 61.3274C252.07 61.3274 253.002 62.2909 253.032 64.2179V69.7765H251.604V64.3022C251.604 63.7093 251.468 63.2672 251.195 62.9758C250.923 62.6793 250.465 62.5311 249.821 62.5311C249.291 62.5311 248.851 62.6896 248.501 63.0065C248.152 63.3183 247.948 63.74 247.892 64.2715V69.7765H246.456V64.3405C246.456 63.1343 245.862 62.5311 244.673 62.5311C243.736 62.5311 243.096 62.9272 242.751 63.7195V69.7765H241.323V61.4807H242.674Z" fill="#FFB1B1"/>
<path d="M255.225 69.033C255.225 68.7876 255.297 68.5832 255.441 68.4196C255.59 68.256 255.811 68.1743 256.105 68.1743C256.398 68.1743 256.619 68.256 256.768 68.4196C256.923 68.5832 257 68.7876 257 69.033C257 69.2681 256.923 69.4649 256.768 69.6233C256.619 69.7818 256.398 69.861 256.105 69.861C255.811 69.861 255.59 69.7818 255.441 69.6233C255.297 69.4649 255.225 69.2681 255.225 69.033Z" fill="#FFB1B1"/>
</svg>
